<svg id="Слой_1" data-name="Слой 1" xmlns="http://www.w3.org/2000/svg" viewBox="0 0 19 30"><defs><style>.cls-1{fill:#28be52;}</style></defs><title>icon_recepts</title><path class="cls-1" d="M6.64.4c0,2.36-.08,4.71,0,7.07,0,.32.44.64.67,1,.23-.34.65-.67.66-1C8,5.23,8,3,8,.63L10,.77c.1,3.26.39,6.43.2,9.58a4.69,4.69,0,0,1-2.09,3,2.81,2.81,0,0,0-1.35,3.2c.45,3.25.71,6.52,1.09,9.78A3.61,3.61,0,0,1,6.33,30H4.48A3.61,3.61,0,0,1,3,26.27c.38-3.31.67-6.64,1.12-9.95a2.39,2.39,0,0,0-1.26-2.8A4.35,4.35,0,0,1,.47,9C.64,6.73.7,4.42.85,2.11,1,.62,1,.62,2.85.77c0,2,0,4.07,0,6.11a4.49,4.49,0,0,0,.67,1.47,4.27,4.27,0,0,0,.66-1.49c0-2.15,0-4.31,0-6.46Z"/><path class="cls-1" d="M19,.4c0,8.68,0,17.35,0,26A3.87,3.87,0,0,1,17.43,30H15.58a3.45,3.45,0,0,1-1.27-4.31c.45-1.41.85-2.84,1.28-4.26a5.46,5.46,0,0,0-1.91-6.17,2.41,2.41,0,0,1-.82-1.63,21.85,21.85,0,0,1,3.43-11A16.58,16.58,0,0,1,18.35.4Z"/></svg>