<svg id="Слой_1" data-name="Слой 1" xmlns="http://www.w3.org/2000/svg" viewBox="0 0 30 30"><defs><style>.cls-1{fill:#2f2f2f;stroke:#2b2b2b;stroke-miterlimit:10;}</style></defs><title>icon_cook</title><path class="cls-1" d="M21.58,29,8.51,29c-2.3,0-4.1.3-4.1-2.47V13.06A6.52,6.52,0,0,1,1,7.36,6.26,6.26,0,0,1,7.14,1a6,6,0,0,1,3.93,1.5,5.9,5.9,0,0,1,7.86,0A6,6,0,0,1,22.86,1,6.26,6.26,0,0,1,29,7.36,6.41,6.41,0,0,1,25.68,13c0,.05,0,.12,0,.19V26.51C25.73,29.21,23.93,29,21.58,29ZM7.14,1.74A5.53,5.53,0,0,0,1.71,7.36a5.7,5.7,0,0,0,3.22,5.11.38.38,0,0,1,.22.36v0c0,.12,0,.22,0,.32V26.49c0,2.35,1.49,1.87,3.39,1.87l13,0c1.94,0,3.53.42,3.53-1.91V13.2s0-.07,0-.1a.57.57,0,0,1-.05-.24.37.37,0,0,1,.21-.37,5.64,5.64,0,0,0,3.15-5.11,5.56,5.56,0,0,0-5.45-5.64,5.3,5.3,0,0,0-3.69,1.52.39.39,0,0,1-.5,0A5.2,5.2,0,0,0,15,1.74a5.33,5.33,0,0,0-3.7,1.52.38.38,0,0,1-.49,0A5.22,5.22,0,0,0,7.14,1.74Z"/><path class="cls-1" d="M12,12.93a.38.38,0,0,1-.19,0,5,5,0,0,1-1.44-6.72A.36.36,0,0,1,10.85,6a.39.39,0,0,1,.12.52,4.23,4.23,0,0,0,1.21,5.7.39.39,0,0,1,.12.51A.35.35,0,0,1,12,12.93Z"/><path class="cls-1" d="M18,12.93a.35.35,0,0,1-.31-.17.4.4,0,0,1,.12-.51A4.23,4.23,0,0,0,19,6.55.4.4,0,0,1,19.15,6a.37.37,0,0,1,.49.13,5,5,0,0,1-1.44,6.72A.38.38,0,0,1,18,12.93Z"/></svg>