<svg id="Слой_1" data-name="Слой 1" xmlns="http://www.w3.org/2000/svg" viewBox="0 0 30 30"><defs><style>.cls-1{fill:#2f2f2f;}</style></defs><title>icon_star</title><path class="cls-1" d="M5.83,29.81c.17-.77.32-1.5.48-2.22.62-2.84,1.24-5.67,1.87-8.51A.42.42,0,0,0,8,18.61L.44,11.68l-.32-.3,2-.19,5.7-.53c.93-.09,1.85-.18,2.77-.25a.42.42,0,0,0,.4-.31c1.3-3.25,2.62-6.49,3.93-9.74,0-.1.09-.2.16-.36.07.15.12.25.16.36q2,4.86,3.94,9.73a.42.42,0,0,0,.41.32c2.65.23,5.29.48,7.93.73l2.5.24-.31.3-7.57,6.91a.45.45,0,0,0-.17.51q1.14,5.16,2.26,10.31c0,.11.05.23.08.4l-.33-.2-8.62-5.43a.44.44,0,0,0-.55,0L6.18,29.6Z"/></svg>