<svg id="Слой_1" data-name="Слой 1" xmlns="http://www.w3.org/2000/svg" viewBox="0 0 23 30"><defs><style>.cls-1{fill:#2f2f2f;}</style></defs><title>icon_portions</title><polygon class="cls-1" points="0.38 10.48 0.38 19.05 2.76 19.05 2.76 30 9.43 30 9.43 19.05 11.81 19.05 11.81 10.48 9.9 10.48 9.9 17.14 7.52 17.14 7.52 28.09 4.66 28.09 4.66 17.14 2.28 17.14 2.28 10.48 0.38 10.48"/><path class="cls-1" d="M9.42,3.33A3.33,3.33,0,1,0,6.09,6.67,3.34,3.34,0,0,0,9.42,3.33Zm-4.76,0A1.43,1.43,0,1,1,6.09,4.76,1.44,1.44,0,0,1,4.66,3.33Z"/><rect class="cls-1" x="10.47" y="28.1" width="12.42" height="1.9"/><circle class="cls-1" cx="16.62" cy="19.02" r="1.09"/><path class="cls-1" d="M16.68,20.68a6.26,6.26,0,0,0-6,4.82h0v.05a6.51,6.51,0,0,0-.19,1.55c0,.1,0,.2,0,.31H22.89V27.1A6.31,6.31,0,0,0,16.68,20.68Zm0,1.73a3.73,3.73,0,0,1,3.93,3.09H12.72A3.77,3.77,0,0,1,16.68,22.41Z"/></svg>