<svg id="Слой_1" data-name="Слой 1" xmlns="http://www.w3.org/2000/svg" viewBox="0 0 29.79 29.96"><defs><style>.cls-1{fill:#fff;}</style></defs><title>icon_next</title><path class="cls-1" d="M14.91,1a14,14,0,1,0,14,14A14,14,0,0,0,14.91,1Zm8.66,14.48-6.13,6.14a.66.66,0,0,1-.48.2.64.64,0,0,1-.48-.2l-1-1a.64.64,0,0,1,0-.95L18.25,17a.36.36,0,0,0-.27-.61H6.73a.65.65,0,0,1-.68-.69V14.36a.64.64,0,0,1,.68-.68H18.05a.38.38,0,0,0,.27-.62l-2.73-2.72a.67.67,0,0,1,0-1l1-1A.61.61,0,0,1,17,8.22a.59.59,0,0,1,.47.21l6.14,6.13a.74.74,0,0,1,.2.48A1,1,0,0,1,23.57,15.52Z"/></svg>