<svg id="Слой_1" data-name="Слой 1" xmlns="http://www.w3.org/2000/svg" viewBox="0 0 198 208"><defs><style>.cls-1{fill:#f4f4f4;}.cls-2{fill:#fff;}.cls-3{fill:#2e2e2e;}</style></defs><title>Kategorii_blud_zakuski</title><ellipse class="cls-1" cx="99" cy="104" rx="99" ry="104"/><circle class="cls-2" cx="99" cy="99" r="99"/><path class="cls-3" d="M162.7,101.3c4.52,1.21,9.15,2.11,13.52,3.72s5.07,5.19,2.16,8.36c-4.22,4.58-8.66,9.29-13.87,12.59-13.08,8.28-28,11.23-43.2,12.44-24.93,2-49.65.94-73.2-8.49C41,127,34.42,122.53,27.73,118.57a13.24,13.24,0,0,1-4.68-4.42c-1.83-3.16-5.16-8-4.06-9.72,1.79-2.82,6.62-3.72,10.17-5.42.24.49.47,1,.7,1.47l-7.64,4.18c4.1,2.63,6.93,5.39,10.29,6.43,10.44,3.22,20.93,6.88,31.68,8.4,29.16,4.13,58.42,3.91,87.44-1.65,5.8-1.12,11.38-3.55,16.92-5.73,1.46-.57,2.4-2.44,3.58-3.71a24.87,24.87,0,0,0-4-3.46,39.4,39.4,0,0,0-5.85-2.21C162.43,102.25,162.57,101.77,162.7,101.3Z"/><path class="cls-3" d="M113.42,92.91c.68-4.51,1.32-8.74,2-13.33L126,80.69c-.3,3.25-.56,6-.82,8.72l1.52.68c3.11-1.75,1.18-6.21,3.19-9l8.31,1.31c-.12,2.35-.23,4.42-.35,6.49l1.19.47,2.73-5.86c8.12.44,8.22.44,8.68,8.25.28,4.82.11,9.66.32,14.48.13,3-1.26,4.18-4,4.55-17.16,2.3-34.28,5-51.49,6.75-4.31.44-8.87-2.3-13.4-3.17-2.42-.46-5,.06-7.53-.08C70.49,114,65.9,114.78,63,113a13,13,0,0,0-9.81-2.06c-7.85,1.07-14-2.47-15.85-8.35-2.19-6.82.62-14.1,8.25-17.22A325.41,325.41,0,0,1,77.46,74.58c5.26-1.55,7.85.85,9.33,7.71L59.2,84.46c10.36,5.83,20.34.14,30.86,0-.59-3.09-1-5.32-1.44-7.55,6.67-.91,7.73.28,8.44,9.71L75.54,90.65c9.53,4.59,16.84.08,24.32-2.44.77-.26,1.19-2.47,1.22-3.79a51,51,0,0,0-.74-6.61l10.11,1c1.77,11.16,1.77,11.16-8.2,15.1-8.29,3.28-8.62,4-8.49,12.76.06,3.64,1.56,4.72,4.86,4.35,15-1.69,30.12-3.26,45.14-5.16,1.35-.17,3.28-2.25,3.52-3.68,1.89-11.27,1.56-11.62-9.67-11C129.31,91.62,121,92.35,113.42,92.91Zm-46,1.61c-2.58-1.87-5.11-4.59-8.22-5.78-6.67-2.54-13.73,3.23-12,9.74.62,2.29,3.09,4.63,5.32,5.76a7.22,7.22,0,0,0,6.38-.56C61.82,101.46,64,98.28,67.4,94.52Zm.73,15.9c4.27,0,8.13-.92,8.45-5.42.27-3.82-3-5.15-6.48-5.16-4.29,0-8.68,2.88-8.57,6C61.67,110.36,65.41,110,68.13,110.42Z"/><path class="cls-3" d="M158,48.06c1.53,6.15,3.05,11.69,4.26,17.3,1.42,6.61,3.32,13.25,3.63,19.93.33,7.32-5.19,12.8-13,14.52-.21-3.85-.72-7.66-.55-11.43.18-4.22-1-6.65-5.64-6.76a32.76,32.76,0,0,1-5.58-1.14c-.41-8.24,3-15.13,7.81-22.8-6.22,4.74-8.17,9.05-10.63,22.29L122.5,78.19C120.15,64.64,138.06,49,158,48.06Z"/><path class="cls-3" d="M113.77,58.55l10.46,5.27L118.8,77.94c-2.5-1.17-6.62-1.72-7.75-3.86C108.11,68.55,110.86,63.23,113.77,58.55Z"/></svg>