<svg id="Слой_1" data-name="Слой 1" xmlns="http://www.w3.org/2000/svg" viewBox="0 0 198 208"><defs><style>.cls-1{fill:#f4f4f4;}.cls-2{fill:#fff;}.cls-3{fill:#2e2e2e;}</style></defs><title>Kategorii_blud_vtoroe</title><ellipse class="cls-1" cx="99" cy="104" rx="99" ry="104"/><circle class="cls-2" cx="99" cy="99" r="99"/><path class="cls-3" d="M78.94,77.07l6.8-9.35c-8.38-3.23-12.82-9.82-13.93-19.44,8.75,2.19,19.48-1.44,23.76,12.91,3.27-10.43,10.62-10.37,19.26-10.84l-8,15.08c8.13,2.93,17.68,5.06,24.82,13.12,4.07-1.08,7.61.54,9.74,5.12a3.06,3.06,0,0,0,1.71,1.65c5,.8,6.79,4.21,7.13,7.68,4.84,1.44,9,2.83,13.26,3.86,1.42.34,3.07-.27,4.61-.44-.37-1.45-.28-3.33-1.18-4.28-3.11-3.3-1.14-5.53,1.71-6.39,3.3-1,9.12-2.17,10.07-.75,2.12,3.19,2.41,7.92,2.47,12s-2.53,7.41-7,7.76-9-.11-13.44-.17c-2.93,0-5.86,0-10,0l10.81,6.81-.65,1.77c-18.48,5.89-37,7.65-55.47-1.1.11,10.16-1.86,11.87-12.11,11.42-3.45-.15-6.94.65-10.37.4-6.32-.45-12.61-1.36-18.9-2.09-.79-.1-1.55-.37-2.33-.45-5.47-.56-11-.75-16.38-1.72-3.89-.71-5.21-5.65-3.8-10.42.73-2.49.54-5.23,1-7.83.38-2.42.25-5.52,1.69-7,3.64-3.85,5.53-8.78,8.71-12.71,5.3-6.53,12.91-5.64,20.35-4.37,1.87.32,3.89-.25,5.84-.41.64,1.28,1,2.91,2,3.76,2.14,1.82,4.74,3.08,6.94,4.83,5.94,4.75,11.78,9.64,18.66,15.3l7.45-16-1.09-.74L99.73,92.79C95.52,89.63,90.58,86,85.83,82.2c-.45-.36-.06-2.73.65-3.39,2.33-2.16,5-4,7.54-5.88l-1.13,3.55L99.61,79l7.75-8.23c-2.44-3.36-5.16-2.87-7.81-1.47a66.71,66.71,0,0,0-5.72,3.8c-.34-3.8-3.06-3.7-5.28-2.52C85.15,72.39,82.12,74.88,78.94,77.07Zm29.76,26.76c7.33,3.48,14.56,7,21.88,10.28a4.28,4.28,0,0,0,3.64-.24c6.71-5,10.65-11.76,10.92-20.23a5.42,5.42,0,0,0-2.67-4.13c-1-.46-3.57.53-4.18,1.59-2.79,4.9-7.62,9.35-4.09,16.06a5.78,5.78,0,0,1-.6,5c-.53.76-3,.64-4.41.21a25.68,25.68,0,0,1-7.66-3.45c-1.29-1-2.49-3.6-2.1-5,1.59-5.73,3.73-11.31,5.83-16.88,1.09-2.88,1.74-6-1.55-7.16-1.31-.46-4.52,1.72-5.45,3.45C114.94,89.54,112.22,96.11,108.7,103.83ZM123,115.67c-9.55-7.38-19.86-15.39-30.22-23.35-3.82-2.93-7.56-6-11.64-8.55a17.8,17.8,0,0,0-15.32-2.12c-1.1.35-1.91,1.58-2.86,2.41,1,1,1.82,2.61,2.93,2.81,10.09,1.85,17.75,8,25.6,13.9C101.37,108.21,111.75,114.69,123,115.67ZM92.32,104.44c-3.6-2.26-6.68-4.6-10.09-6.24a168.49,168.49,0,0,0-18.3-7.73c-3.62-1.22-7.46-.54-10.21,4,1.8.68,3.09,1.52,4.43,1.62,8.27.61,15.49,4,22.11,8.59C84.35,107.45,87.83,107.82,92.32,104.44Zm56.75-2.67c6.15.4,11.82,1,17.51,1.1,7.22.17,11.06-4.15,10.49-11.26-.22-2.84-1-4.91-4.51-4.24-3.12.6-4,1.77-2.7,5.14,1.75,4.48-.48,7.15-5.29,6.75-2.77-.24-5.45-1.36-8.19-1.93C152.34,96.49,149.52,97.62,149.07,101.77Zm-82.3-1.25c-2.2-.11-4.68-.93-6.51-.18-3.42,1.4-7.61,11.35-6.41,14.83.45,1.33,2.41,3,3.67,3,1.52,0,3.87-1.29,4.41-2.61C63.78,111,65,106.23,66.77,100.52Zm64.2,1.55c1.44-3.66,3.17-6.95,3.95-10.45.41-1.79-.87-4-1.38-6-1.83.68-4.6.83-5.32,2.12-2.36,4.22-4,8.86-6,13.72Zm-54.56,3.37-7.26-3.5c-1.37,5.09-3,9.39-3.43,13.81-.14,1.44,2.84,3.19,4.39,4.79,1-1.34,2.37-2.55,2.93-4.05C74.31,113.12,75.17,109.6,76.41,105.44Zm27.46-17.61c3.72-3,7.16-5.32,9.88-8.28,1.06-1.17.49-3.83.67-5.81-1.93-.11-4.22-.95-5.73-.2C102,76.8,101.06,79.75,103.87,87.83Zm-48.58,12c-5.9,1.28-10.29,6-10.45,11.56-.08,3,.86,5.15,4.12,5.13Zm23.05,7c-.65,5-1.47,9-1.43,13.11,0,.74,3.55,1.44,5.32,2.11.22-4.69.39-8.37.59-12.66Zm61.72,8.2.42,1.12A102.92,102.92,0,0,0,151,114.14c.91-.25,2.16-2.48,1.86-3.32-.87-2.47-5.67-3.35-7.6-1.54S141.79,113.05,140.06,115ZM79.3,56.16c8.92,10.06,22.84,10.89,28.51,1.37C97.5,65.86,88.43,61.72,79.3,56.16Z"/><path class="cls-3" d="M32.07,105.56c-.28.14-.57.26-.84.41l-8,4.46c2.45,2.27,4.56,5.76,7.43,6.58,11.29,3.27,22.69,6.95,34.3,8.19,33.3,3.55,66.54,2.53,99.32-5.26,4.31-1,8.5-2.51,12.75-3.79l.65,1.14c-6.25,3.9-12.26,8.3-18.82,11.62-23.07,11.67-47.87,14.7-73.36,13.56-15.58-.69-31.06-2.72-45.09-9.81A84,84,0,0,1,19.93,118c-6.48-6.32-4.58-10.62,4.29-12.4,2.57-.51,5.22-.61,7.83-.89Z"/></svg>