<svg id="Слой_1" data-name="Слой 1" xmlns="http://www.w3.org/2000/svg" viewBox="0 0 198 207.96"><defs><style>.cls-1{fill:#f4f4f4;}.cls-2{fill:#fff;}.cls-3{fill:#2e2e2e;}</style></defs><title>Kategorii_blud_pervoe</title><ellipse class="cls-1" cx="99" cy="104" rx="99" ry="104"/><circle class="cls-2" cx="99" cy="99" r="99"/><path class="cls-3" d="M42.61,93.76A14.43,14.43,0,0,0,39,95.25c-1.85,1.44-3.46,3.19-5.18,4.8,1.77,1.6,3.3,4.09,5.35,4.63,7.52,2,15.15,4,22.85,4.75,22.15,2,44.24,1.64,65.88-4.42,2.69-.75,5.34-1.65,8-2.46.1,0,.27.17.76.49a12.69,12.69,0,0,1-.32,2.53c-4.7,14.76-12.48,27.61-24.48,37.52-19.12,15.79-41.95,15.93-61.22.4a76.55,76.55,0,0,1-24.78-35.57c-2.65-7.76-1.14-10.69,6.57-13.15,3.23-1,6.65-1.53,10-2.27Z"/><path class="cls-3" d="M79.92,96.81l-2.19-3.5c1-.41,1.72-1,2.4-.94,10.47.37,21,.44,31.37,1.42,4.29.4,6.45-.37,8.63-4.17,7.61-13.25,16.75-25.36,29.85-33.7,4.26-2.7,9.28-4.31,14.11-6,1.91-.65,4.33-.33,6.4.08,4.18.83,6.68,3.64,7.42,7.79a7.37,7.37,0,0,1-4.65,8.53A88.77,88.77,0,0,1,159.12,71c-15.27,3.63-28.3,10.47-36.92,24.49L124.9,97c3.37,1.93,3,4.08-.34,5.1a111.64,111.64,0,0,1-17.87,4.26c-18.43,2.39-36.9,2.43-55.15-1.48-3.41-.73-9.26-3.94-9.06-5.17.81-4.8,6.11-3.67,9.77-4.57a19.28,19.28,0,0,1,4.44-.06c-1.39,6.67-1.13,7.37,5.5,8,4.89.46,9.88-.15,14.82,0,4.22.11,8.42.76,12.64.84,2,0,4.07-.7,6.13-1.09C93.64,93.32,88.07,91.26,79.92,96.81Z"/><path class="cls-3" d="M68.76,102.08c-2-.18-4-.23-5.91-.58-5.28-1-6-2.75-3-7.3A10.16,10.16,0,0,1,77,94.76c2.58,4.5,1.36,6.87-3.73,7.17-1.49.08-3,0-4.47,0Z"/><path class="cls-3" d="M93.6,102.32a78.6,78.6,0,0,1-9.68.45c-3.63-.26-4.18-2.7-1.82-5,1.47-1.43,4.28-2.91,5.93-2.42,2.43.71,4.37,3.14,6.52,4.83C94.24,100.9,93.92,101.61,93.6,102.32Z"/></svg>