<svg id="Слой_1" data-name="Слой 1" xmlns="http://www.w3.org/2000/svg" viewBox="0 0 198 208"><defs><style>.cls-1{fill:#f4f4f4;}.cls-2{fill:#fff;}.cls-3{fill:#2e2e2e;}</style></defs><title>Kategorii_blud_solat</title><ellipse class="cls-1" cx="99" cy="104" rx="99" ry="104"/><circle class="cls-2" cx="99" cy="99" r="99"/><path class="cls-3" d="M154.55,70.39c5.25,9.82,5.68,20.77,1,32.5,1.27-.32,2.28-.6,3.3-.84,3-.72,4.49.49,3.06,3.37-10.46,21.19-24.23,39.51-47.74,47-21.4,6.84-40.84,1.26-57.63-13.24-10.79-9.31-18-21.12-23.34-34.36-3.73-9.32,1.76-12,9.3-11.39l-5.08,4c2.12,1.73,4.07,3.75,6.4,5.12a35.12,35.12,0,0,0,7.41,2.94c3,.94,6.06,1.64,9.78,2.62V92c7.17,2.4,13.88,5,20.77,6.87C89.3,101,96.13,104,101.71,109.65c3.06,3.07,5.79,2.63,6.55-1.05,2.36-11.41,9.58-18.73,19.58-23.75,3.56-1.8,7.36-3.14,10.85-5.06C144,76.89,149.05,73.67,154.55,70.39ZM147,94.19c-.33-.34-.66-.68-1-1l-12.3,13,1,.92Z"/><path class="cls-3" d="M128.19,76.15c-2.59-1-5.34-3-7.75-2.61-3.17.47-7.4,2-8.78,4.48-2.2,3.91-4.58,4.84-8.72,5.4-3.85.52-7.42,3.15-10.37,4.51-2.48-3.3-5-7.43-8.32-10.65-1.43-1.36-4.81-1.4-7.11-1-6.19,1.13-9,6.48-8.38,16.74L60,86c-1,6.19-2,12.11-3,18-6.54-.62-7.52-1.5-8.6-8.1-1.56-9.47-.6-18.43,4.87-26.33L63,81.49l1.31-.28c.75-10,5.3-17.71,12.49-22.46l18.62,20.6c.72-6.9,5.85-10.62,11-14.48,3.9-2.94,7.52-6.24,11.35-9.46C124.17,61.59,128.44,69.8,128.19,76.15Z"/><path class="cls-3" d="M105.72,85.29a41.69,41.69,0,0,1,5.63,1.57c4.62,2,4.58,3,1.7,7.11a62.62,62.62,0,0,0-6.14,11.22c-1.4,3.24-3,3.57-5.64,1.64-1.19-.89-2.35-1.83-3.56-2.7-2.71-1.94-6.44-3-5.5-7.71a12.53,12.53,0,0,1,8.07-9.88A35.58,35.58,0,0,1,105.72,85.29Z"/><path class="cls-3" d="M88.46,87a8.92,8.92,0,0,1-17.83.41A8.92,8.92,0,0,1,88.46,87Z"/><path class="cls-3" d="M112.41,82.5c.91-4.54,3.89-7.57,7.29-7.15s6.62,2.7,5.55,6.1c-.78,2.48-4.1,5.1-6.74,5.73C116.93,87.55,114.47,84.19,112.41,82.5Z"/></svg>