<svg id="Слой_1" data-name="Слой 1" xmlns="http://www.w3.org/2000/svg" viewBox="0 0 198 208"><defs><style>.cls-1{fill:#f4f4f4;}.cls-2{fill:#fff;}.cls-3{fill:#2e2e2e;}</style></defs><title>Kategorii_blud_desert</title><ellipse class="cls-1" cx="99" cy="104" rx="99" ry="104"/><circle class="cls-2" cx="99" cy="99" r="99"/><path class="cls-3" d="M124.88,74.9C136.3,81.2,148,87.38,159.4,94.07c4,2.38,4.17,9.65,1.33,15.11-1.13,2.16-1.43,4.81-2.79,6.77-1.69,2.41-3.74,5.5-6.24,6.22a75.51,75.51,0,0,1-18.16,2.93c-24.48.77-49,.81-73.31-2.74a72.14,72.14,0,0,1-7.77-1.78c-4.34-1.15-6.28-3.35-5.18-8.41.58-2.7-1.14-5.9-2.09-10,7.79,2,15.71-.13,22.43,5,3.2,2.46,6.68,2.57,10.25.45,4.64-2.75,7.81-2.17,11.43,2,3.23,3.74,7.13,3.52,11.41,2.32a63.65,63.65,0,0,1,7.58-1.21c1.14-.17,2.75.13,3.37-.52,4.5-4.72,10.23-2.88,15.52-3.07,6.33-.22,12.67-.16,19-.11,3.58,0,5.25-1.59,5.08-5.15-.18-3.86-3-2.7-5.17-2.65-9.16.24-18.32.57-27.48.77-3,.07-5.41-.1-5.12,4.47.25,4-3,5-6.68,4.51-1.51-.21-3.37-.35-4.58.35-3.46,2-7.29,3.23-10.1.25-1.84-2-1.85-5.62-3-9.59H77.91c-.9,2.37-1.39,5.13-2.94,7-.6.74-4.55.21-5.25-.87-1.15-1.77-.89-4.45-1.32-7.38L46,96.27,45.64,95c1.59-.92,3.07-2.17,4.78-2.7,12.21-3.84,24.44-7.61,36.75-11.14a5.17,5.17,0,0,1,4.56,1.59c7.77,12.2,28.7,9.59,31.41-5.71C123.21,76.61,123.73,76.28,124.88,74.9Zm15.62,43c-.22-.6-.44-1.21-.67-1.81-.27-.16-.54-.44-.82-.45q-41.08-1.93-82.18-3.76c-.9,0-2.46.75-2.61,1.41a3.37,3.37,0,0,0,1.22,2.85,9.26,9.26,0,0,0,4.19,1.39c14.55,1.29,29.09,2.87,43.68,3.57,9.43.46,18.93-.25,28.38-.81C134.67,120.13,137.57,118.75,140.5,117.92Z"/><path class="cls-3" d="M40.06,112.38l-7.65,4.47c4.36,2,7.4,4.31,10.71,4.78,15.43,2.21,30.9,4.84,46.44,5.59,26.44,1.28,52.91.61,79.17-3.62a12.55,12.55,0,0,1,1.94,0l1.39,1.51c-1.86,1.26-3.79,2.43-5.56,3.81-11.26,8.72-24.36,12.82-38.16,14.83-24.33,3.54-48.58,3-72.09-4.56C47.7,136.42,39.72,131.57,32,126.8c-2.81-1.73-4.06-6-6-9.09,3.2-1.76,6.34-3.64,9.62-5.22,1.24-.6,2.81-.5,4.23-.72Z"/><path class="cls-3" d="M79.24,50.57c2.46-12.64,17-19.2,27.57-12.69,5.94,3.68,8.54,11.72,5.43,18.95-1.58,3.7-1.48,5.58,2.18,7.94,5.36,3.44,6.61,10.29,3.88,16a13.3,13.3,0,0,1-14,7.39A13.68,13.68,0,0,1,93.2,75.71a13.49,13.49,0,0,1,9.36-13.27c6.5-2,8.53-4.41,8.63-10.19.11-5.4-2.62-9.36-7.57-11a12.25,12.25,0,0,0-13.75,4.4,6.57,6.57,0,0,0-1.09,1.67C87,52.57,83.29,51.93,79.24,50.57Z"/></svg>