<svg id="Слой_1" data-name="Слой 1" xmlns="http://www.w3.org/2000/svg" viewBox="0 0 286 80"><defs><style>.cls-1{fill:#28be52;}</style></defs><title>logo</title><path class="cls-1" d="M16.43,45.74q.91-6.18,1.43-11.9c.33-3.81.5-7.28.5-10.38s-.2-5.15-.61-6.12c2.43.82,4,2.11,4.57,3.87a14.45,14.45,0,0,1,7-1.89,10.43,10.43,0,0,1,6.32,2,6.19,6.19,0,0,1,2.68,5.32,8.59,8.59,0,0,1-2.18,5.81,13.61,13.61,0,0,1-6.11,3.79,11.87,11.87,0,0,1,5.59,3,7.44,7.44,0,0,1,2.5,5.69,9.47,9.47,0,0,1-3.63,8,14.49,14.49,0,0,1-9.1,2.79,16.19,16.19,0,0,1-10-3.38Q15.51,51.92,16.43,45.74ZM33.85,28a5.12,5.12,0,0,0-1.58-3.92A6.11,6.11,0,0,0,28,22.58a11.69,11.69,0,0,0-5.11,1.14q0,2.78-1.16,13.84T20.52,51.75a13.12,13.12,0,0,0,4.4.79,9.12,9.12,0,0,0,6.25-2.18,7.44,7.44,0,0,0,2.46-5.87,6.15,6.15,0,0,0-2.53-4.86,11.4,11.4,0,0,0-7-2.27L24,35.78a12.89,12.89,0,0,0,7.28-3C33,31.21,33.85,29.59,33.85,28Z"/><path class="cls-1" d="M53.1,31.53a9.42,9.42,0,0,1,5.77-2.18,5.86,5.86,0,0,1,4.86,2.58,11.33,11.33,0,0,1,1.93,7,21.79,21.79,0,0,1-1.84,9,12.22,12.22,0,0,1-6,6.38,10.71,10.71,0,0,1-4.66,1,8.19,8.19,0,0,1-6.25-3q-2.69-3-2.68-8.49a18.56,18.56,0,0,1,2.37-9.57,12.74,12.74,0,0,1,6.47-5.64.78.78,0,0,1,.88.88q-4.35,2.86-5.37,9A14.57,14.57,0,0,1,53.1,31.53Zm8.25,8.62q0-4.29-1.08-6.16a3.39,3.39,0,0,0-3.08-1.87,5.91,5.91,0,0,0-4,2A13.81,13.81,0,0,0,50,38.92a15.78,15.78,0,0,0-1.17,6A11.42,11.42,0,0,0,50,50.27a3.85,3.85,0,0,0,3.61,2.27q3.44,0,5.59-4A17.62,17.62,0,0,0,61.35,40.15Z"/><path class="cls-1" d="M80.25,31.53A9.41,9.41,0,0,1,86,29.35a5.89,5.89,0,0,1,4.87,2.58,11.33,11.33,0,0,1,1.93,7,21.8,21.8,0,0,1-1.85,9,12.21,12.21,0,0,1-6,6.38,10.72,10.72,0,0,1-4.67,1,8.19,8.19,0,0,1-6.24-3q-2.68-3-2.69-8.49a18.47,18.47,0,0,1,2.38-9.57,12.7,12.7,0,0,1,6.47-5.64.78.78,0,0,1,.88.88q-4.36,2.86-5.37,9A14.5,14.5,0,0,1,80.25,31.53Zm8.25,8.62q0-4.29-1.08-6.16a3.39,3.39,0,0,0-3.08-1.87,5.94,5.94,0,0,0-4,2,13.92,13.92,0,0,0-3.18,4.84,15.78,15.78,0,0,0-1.17,6,11.3,11.3,0,0,0,1.19,5.36,3.84,3.84,0,0,0,3.6,2.27c2.29,0,4.16-1.35,5.59-4A17.51,17.51,0,0,0,88.5,40.15Z"/><path class="cls-1" d="M108.12,31.93q2.59-2.8,5.06-2.8a5,5,0,0,1,3.85,1.5,5.93,5.93,0,0,1,1.39,4.2,8.11,8.11,0,0,1-1.54,4.84,9,9,0,0,1-4.23,3.15l.53,1.62a40.1,40.1,0,0,0,4.23,9,33.15,33.15,0,0,0,4.48,6.07,7,7,0,0,1-2.26.4,4.92,4.92,0,0,1-2.18-.55,10.13,10.13,0,0,1-1.91-1.23A8.85,8.85,0,0,1,113.82,56c-.6-1-1.08-1.81-1.43-2.49a31.93,31.93,0,0,1-1.32-3.08c-.56-1.43-1.33-3.6-2.33-6.51-.38,0-.94.05-1.67.05q-.27-.22-.27-1.41a8.51,8.51,0,0,0,3.52-.79,5.75,5.75,0,0,0,2.33-1.9,8,8,0,0,0,1.68-4.7,3.32,3.32,0,0,0-.55-2,1.85,1.85,0,0,0-1.61-.77q-1.85,0-3.74,2.44a21,21,0,0,0-3.19,6.71,30.67,30.67,0,0,0-1.3,8.93,25.13,25.13,0,0,0,.27,4.14L103,54.7a4.54,4.54,0,0,1-3.06-.88,3.51,3.51,0,0,1-1-2.75,63.53,63.53,0,0,1,.75-7.2q2.37-16.36,2.37-24.86a16.46,16.46,0,0,0-.52-5.15,6.46,6.46,0,0,1,3.58,2.73,10,10,0,0,1,1,5q0,2.21-.86,9.24T104.16,41Q105.53,34.73,108.12,31.93Z"/><path class="cls-1" d="M137.6,22.53a5.85,5.85,0,0,1,.31-1.89,87.09,87.09,0,0,0,10.56.57,68.5,68.5,0,0,0,12.23-1.14q-.62,4.09-5.1,4.44c-1.56.15-3.13.27-4.71.35q0,1.73-1.47,11.88a119.26,119.26,0,0,0-1.43,14A15.28,15.28,0,0,0,148.6,56a7.47,7.47,0,0,1-3.85-2.62,6.86,6.86,0,0,1-1.12-4,106.69,106.69,0,0,1,1.17-10.73q1.15-8.43,1.34-13.58-3.82.14-6.6.14C138.25,25.22,137.6,24.32,137.6,22.53Z"/><path class="cls-1" d="M169.06,37.38a21.34,21.34,0,0,0-2,4.53,15.82,15.82,0,0,0-.68,4.43,6.5,6.5,0,0,0,1,3.58,3,3,0,0,0,2.7,1.48c1.65,0,3.19-.91,4.62-2.71A19.4,19.4,0,0,0,178,42.13,24.89,24.89,0,0,0,179.18,35a46.19,46.19,0,0,0-.26-5.39q1.05-.09,1.32-.09c2.49,0,3.74,1.27,3.74,3.83,0,.55-.35,2.82-1.06,6.79a58.05,58.05,0,0,0-1,9.55,14.23,14.23,0,0,0,1.36,6.36,6.09,6.09,0,0,1-4-2.44A9.74,9.74,0,0,1,178,48.23c0-.41.06-1.21.18-2.38A13.48,13.48,0,0,1,174,52.58a9.15,9.15,0,0,1-5.88,2.56A5.68,5.68,0,0,1,163.43,53a9.35,9.35,0,0,1-1.76-6,20.58,20.58,0,0,1,1.43-7.52,17,17,0,0,1,4.31-6.36,9.24,9.24,0,0,1,6.45-2.69,10.91,10.91,0,0,1,3.39.62,12.23,12.23,0,0,0-4.76,2.42A14.45,14.45,0,0,0,169.06,37.38Z"/><path class="cls-1" d="M199.75,31.38a4.12,4.12,0,0,0-2.64.92A3,3,0,0,0,196,34.83a4.84,4.84,0,0,0,1.07,3,12.05,12.05,0,0,0,2.62,2.51c1,.73,2.07,1.48,3.13,2.25q3.69,2.71,3.69,5.85A6.14,6.14,0,0,1,204,53.53a10.11,10.11,0,0,1-6.4,2,10.26,10.26,0,0,1-6-1.54,4.44,4.44,0,0,1-2.13-3.63A4.72,4.72,0,0,1,190.45,47,3.29,3.29,0,0,1,193,45.85a3.33,3.33,0,0,1,1.49.35,4.59,4.59,0,0,0-1,2.91,4,4,0,0,0,1,2.81,3.64,3.64,0,0,0,2.86,1.15,5.06,5.06,0,0,0,3.1-1,2.88,2.88,0,0,0,1.28-2.4,4.42,4.42,0,0,0-.75-2.55,7.46,7.46,0,0,0-1.87-1.89c-.75-.53-1.56-1.11-2.44-1.76s-1.7-1.28-2.44-1.91a7.67,7.67,0,0,1-1.87-2.38,6.66,6.66,0,0,1-.75-3.15A6.39,6.39,0,0,1,194.05,31a9,9,0,0,1,6-2c2.4,0,4.16.49,5.28,1.49A4.46,4.46,0,0,1,207,33.82a5,5,0,0,1-.92,3.08,2.89,2.89,0,0,1-2.38,1.21,4.15,4.15,0,0,1-1.63-.4,4.74,4.74,0,0,0,1.15-3,3.05,3.05,0,0,0-1-2.47A3.69,3.69,0,0,0,199.75,31.38Z"/><path class="cls-1" d="M226.79,30.5a3.63,3.63,0,0,1-.7,2.55,2.8,2.8,0,0,1-2.07.7h-3.17q-.18,1.14-.92,5.46a75,75,0,0,0-1.5,12.36c0,2.79.2,4.64.62,5.55a6.45,6.45,0,0,1-3.57-2.8,9.14,9.14,0,0,1-1-4.55,37.17,37.17,0,0,1,.33-5.08q.33-2.4.94-5.61c.41-2.15.71-3.86.88-5.15a18.53,18.53,0,0,0-4.93,1.41,10.08,10.08,0,0,1-.08-1.28,2.89,2.89,0,0,1,1.4-2.84A9.11,9.11,0,0,1,217,30.5c.21-2.17.31-3.8.31-4.87s0-1.92,0-2.57,0-1.13,0-1.45a4.57,4.57,0,0,1,3.12,1.78,6.6,6.6,0,0,1,1.1,4,27.7,27.7,0,0,1-.22,3.21c2.55,0,4.36-.43,5.41-1.28A7.93,7.93,0,0,1,226.79,30.5Z"/><path class="cls-1" d="M242.76,54a11.51,11.51,0,0,1-5.61,1.32,7.11,7.11,0,0,1-5.57-2.82q-2.37-2.82-2.37-7.92a18,18,0,0,1,3.12-10.38,11.7,11.7,0,0,1,4-3.57,11.19,11.19,0,0,1,5.48-1.36q6.6,0,6.6,6.38a7.06,7.06,0,0,1-3,6,11.35,11.35,0,0,1-6.89,2.17,20.61,20.61,0,0,1-4.66-.48c0,.29,0,.75,0,1.36q0,7.8,4.62,7.79,4.37,0,7.09-4.31c1.08.15,1.62.54,1.62,1.19A12.53,12.53,0,0,1,242.76,54ZM241,31.51q-2.64,0-4.47,3a19.4,19.4,0,0,0-2.44,7.13h1.23a11.24,11.24,0,0,0,4.05-.66A6.51,6.51,0,0,0,242,39.3a6.77,6.77,0,0,0,1.76-4.58,3.71,3.71,0,0,0-.68-2.33A2.46,2.46,0,0,0,241,31.51Z"/><path class="cls-1" d="M262.67,31.38a4.12,4.12,0,0,0-2.64.92,3.05,3.05,0,0,0-1.17,2.53,4.86,4.86,0,0,0,1.08,3,12.05,12.05,0,0,0,2.62,2.51q1.54,1.09,3.12,2.25,3.7,2.71,3.7,5.85a6.17,6.17,0,0,1-2.51,5.08,10.11,10.11,0,0,1-6.4,2,10.21,10.21,0,0,1-6-1.54,4.44,4.44,0,0,1-2.13-3.63A4.77,4.77,0,0,1,253.36,47a3.32,3.32,0,0,1,2.56-1.19,3.36,3.36,0,0,1,1.49.35,4.6,4.6,0,0,0-1,2.91,4,4,0,0,0,1,2.81,3.64,3.64,0,0,0,2.86,1.15,5.06,5.06,0,0,0,3.1-1,2.88,2.88,0,0,0,1.28-2.4,4.42,4.42,0,0,0-.75-2.55,7.46,7.46,0,0,0-1.87-1.89c-.75-.53-1.56-1.11-2.44-1.76s-1.7-1.28-2.45-1.91a8,8,0,0,1-1.87-2.38,6.77,6.77,0,0,1-.74-3.15A6.39,6.39,0,0,1,257,31a9,9,0,0,1,6-2c2.4,0,4.16.49,5.28,1.49a4.46,4.46,0,0,1,1.67,3.37A4.93,4.93,0,0,1,269,36.9a2.86,2.86,0,0,1-2.37,1.21,4.15,4.15,0,0,1-1.63-.4,4.73,4.73,0,0,0,1.14-3,3.05,3.05,0,0,0-1-2.47A3.66,3.66,0,0,0,262.67,31.38Z"/></svg>